PathFileType	4	(X/Y/Z)	/Users/niels/Desktop/University/Third Semester/Perception and Action/Exam/Gymnastics Motion Tracking/Code for Gym Tracking/Scripts/Analyzed Data/Start Salto/st_salto_bad_id9_2_Sports2D/st_salto_bad_id9_2_Sports2D_px_person00.trc
DataRate	CameraRate	NumFrames	NumMarkers	Units	OrigDataRate	OrigDataStartFrame	OrigNumFrames
29.871244635193133	29.871244635193133	8	22	m	29.871244635193133	145	233
Frame#	Time	Hip			RHip			RKnee			RAnkle			RBigToe			RSmallToe			RHeel			LHip			LKnee			LAnkle			LBigToe			LSmallToe			LHeel			Neck			Head			Nose			RShoulder			RElbow			RWrist			LShoulder			LElbow			LWrist		
		X1	Y1	Z1	X2	Y2	Z2	X3	Y3	Z3	X4	Y4	Z4	X5	Y5	Z5	X6	Y6	Z6	X7	Y7	Z7	X8	Y8	Z8	X9	Y9	Z9	X10	Y10	Z10	X11	Y11	Z11	X12	Y12	Z12	X13	Y13	Z13	X14	Y14	Z14	X15	Y15	Z15	X16	Y16	Z16	X17	Y17	Z17	X18	Y18	Z18	X19	Y19	Z19	X20	Y20	Z20	X21	Y21	Z21	X22	Y22	Z22
145	4.854166666666667	0.8278603732496796	-0.3187849774334699	0.0	0.8240581219852858	-0.31444114439316095	0.0	0.8000287198494637	-0.46758417786491135	0.0	0.6792539263822451	-0.5653795568279943	0.0	0.6814867997293113	-0.6463162903064823	0.0	0.6715536865660675	-0.6369059492421119	0.0	0.6508662346573035	-0.5676592790724716	0.0	0.8237113719449727	-0.3218151292378963	0.0	0.7940547729193924	-0.4710737945547246	0.0	0.6900371315793875	-0.5721154481069374	0.0	0.6900361896061525	-0.6458464386757636	0.0	0.6964615956086664	-0.6410648902203556	0.0	0.6608344545370648	-0.5761260267592987	0.0	1.0080343869632413	-0.3090889957530066	0.0	1.0905245562838297	-0.3503996497832167	0.0	1.0464720333936792	-0.35746166724359985	0.0	1.0180173959159862	-0.2824414209665876	0.0	0.9887990099687103	-0.35490211018202505	0.0	0.9915988971139441	-0.4662538889742985	0.0	0.9771550469456054	-0.31778047641202034	0.0	0.9318763010282652	-0.41943634856497647	0.0	0.9590753681043855	-0.48264177786515133	0.0
146	4.88764367816092	0.8380169167884253	-0.306920802181438	0.0	0.8361881292420552	-0.3036742149630831	0.0	0.8085206207899311	-0.45707989498296137	0.0	0.6804407681882492	-0.5434380898491915	0.0	0.6780998129817813	-0.6228339064041403	0.0	0.6686642968949345	-0.6133825783531865	0.0	0.6519674063899825	-0.5437474824541563	0.0	0.8329323197441729	-0.3092405380843099	0.0	0.801847383728433	-0.45843670549444593	0.0	0.6891012587478988	-0.5477094469155306	0.0	0.6859632719872841	-0.6206073231258511	0.0	0.6906909445281915	-0.6164535181404515	0.0	0.659389665271847	-0.5500463852742764	0.0	1.0201178458029474	-0.311530602701623	0.0	1.0976453882521657	-0.35915031890018495	0.0	1.0526167511721056	-0.3638833501541171	0.0	1.0301099683105648	-0.28552188805323014	0.0	0.9890572155835332	-0.35012482883559953	0.0	0.981378293534988	-0.463038777194729	0.0	0.9889332005517159	-0.3146107450898003	0.0	0.9318938614597604	-0.40997458609393345	0.0	0.9497893277038496	-0.4784700586076035	0.0
147	4.921120689655173	0.8484295945876399	-0.29526573620240165	0.0	0.8484823294127631	-0.29326227958212947	0.0	0.8168356218816331	-0.44657823029191324	0.0	0.6818579136099712	-0.5201994577414679	0.0	0.674324341627764	-0.5978862070618859	0.0	0.664918413045073	-0.5882268468590358	0.0	0.6538814930065908	-0.5180022770254894	0.0	0.8430299027444274	-0.29732024926954054	0.0	0.8105175705549527	-0.4461090090669358	0.0	0.6893397500596699	-0.5227451099361349	0.0	0.6821399588265638	-0.5935969370003674	0.0	0.6849553495499843	-0.5904498649004811	0.0	0.6600854867736906	-0.5228180337290378	0.0	1.0319314438134697	-0.3150554914554766	0.0	1.1037440358883097	-0.3681498469380532	0.0	1.0582811803847234	-0.3700170065441435	0.0	1.0416246550124548	-0.2892914143110576	0.0	0.9889338105348563	-0.3452379043721164	0.0	0.9705397791946995	-0.45710012582128084	0.0	1.0015223170216458	-0.3141748670214202	0.0	0.9339055811459295	-0.39867295412057296	0.0	0.9401981897004059	-0.4721438093043242	0.0
148	4.954597701149425	0.8588951016728348	-0.28417758390865044	0.0	0.8606835587507606	-0.2835107294798948	0.0	0.8251437316018937	-0.43647498871328777	0.0	0.6838318535758865	-0.49649709721277163	0.0	0.6708410886154578	-0.572611608285547	0.0	0.6611996931567803	-0.5624260359187828	0.0	0.6567594706157512	-0.4915120689786144	0.0	0.8534138648441334	-0.28619972112932823	0.0	0.8199341180442676	-0.43458667809816226	0.0	0.6905824869044996	-0.49795381299529823	0.0	0.6787335020120129	-0.5661137034849604	0.0	0.6798944066076043	-0.5641170456190764	0.0	0.6621011882849122	-0.4953305388304601	0.0	1.042660716836635	-0.31957866286803877	0.0	1.1092199590908145	-0.3769620405077991	0.0	1.0636660801701872	-0.37554804972191885	0.0	1.0519680155763027	-0.293688304104959	0.0	0.9888745750166538	-0.3403433007082311	0.0	0.9595930174351331	-0.44834896652732653	0.0	1.014150116417706	-0.3163177570833355	0.0	0.9381246714186265	-0.38604621121187105	0.0	0.9302294263152425	-0.4633528476543068	0.0
149	4.988074712643678	0.8693265851620173	-0.273752536943638	0.0	0.8727063043154738	-0.2746013043352313	0.0	0.8334676002960781	-0.4272337144872927	0.0	0.6865993326564632	-0.4730183497460789	0.0	0.6681296521254007	-0.5476450726381753	0.0	0.6583094281381404	-0.5366320917789497	0.0	0.6606905106059948	-0.4653839488918131	0.0	0.8636148726157056	-0.2758657218574305	0.0	0.8297714048066205	-0.42441045937600036	0.0	0.6927971056617406	-0.47398225444243136	0.0	0.6759293778837152	-0.5391840111989816	0.0	0.6759313339832094	-0.5383516815570427	0.0	0.664936128958324	-0.46859127561870734	0.0	1.0518022871289487	-0.3247986980843495	0.0	1.114324963059711	-0.3851832368439162	0.0	1.0687479335406223	-0.380410631450964	0.0	1.0608221103297846	-0.29851102778653593	0.0	0.9893298293459545	-0.3352698571116901	0.0	0.9489286658127074	-0.43705988412038654	0.0	1.0260036612500063	-0.32018895649071044	0.0	0.9439753084209316	-0.3725330882439501	0.0	0.920353524711443	-0.4518434641971068	0.0
150	5.0215517241379315	0.8798111330392133	-0.26394257936099885	0.0	0.8847077661348713	-0.2666103065885328	0.0	0.8416573355196083	-0.4190575719039831	0.0	0.6902966444555867	-0.45011081269027237	0.0	0.6663568635768371	-0.5230291565481392	0.0	0.6567865803364389	-0.5110597270381542	0.0	0.6657965205324125	-0.44032939929157916	0.0	0.8734327138112628	-0.26622500262155074	0.0	0.8394465960217332	-0.41577836620529834	0.0	0.6961099088960031	-0.45112689006452783	0.0	0.6738191808550701	-0.5133853130916517	0.0	0.6731657316466755	-0.5136493519828077	0.0	0.6687091915908687	-0.44327950290298257	0.0	1.0592207399685372	-0.33023557482788174	0.0	1.1188773027791075	-0.39269781688518796	0.0	1.0731277606467562	-0.3846500761230173	0.0	1.0682297270203587	-0.3034094356535226	0.0	0.9905952819646473	-0.3297443276228315	0.0	0.938854275190068	-0.4238059843438282	0.0	1.0363771435038704	-0.3247116583127337	0.0	0.95051804364404	-0.35830450926139695	0.0	0.9116325612992673	-0.4373905263659428	0.0
151	5.055028735632185	0.890630416535064	-0.2547759112929071	0.0	0.896981338503644	-0.25960453071358996	0.0	0.8494871008806586	-0.41175774455312547	0.0	0.6950813406218471	-0.42763371529529953	0.0	0.6655229602494378	-0.4983209719863175	0.0	0.6569505389664507	-0.4855078827964858	0.0	0.6723064527579593	-0.4163615659408375	0.0	0.883024590631119	-0.25728076282511636	0.0	0.8482788058486297	-0.4083305493109746	0.0	0.700699394682216	-0.42913355292958866	0.0	0.672382261237354	-0.48885596602137793	0.0	0.6714490323762677	-0.4899553556499596	0.0	0.6740097648223853	-0.41935261544096586	0.0	1.0650138997675613	-0.3354403666895438	0.0	1.1223761649564292	-0.3998329795060224	0.0	1.0762298741193135	-0.3883186937310434	0.0	1.0744847936120316	-0.30818296104475107	0.0	0.9927437471880952	-0.3236834221586275	0.0	0.9297321768556193	-0.40895595551404124	0.0	1.0448557704836607	-0.32929752093258535	0.0	0.9570684847349654	-0.3436816657728594	0.0	0.9051846638548321	-0.41993570731539187	0.0
152	5.088505747126437	0.9021600505490789	-0.24629480952102534	0.0	0.9097333324483966	-0.25348182150653104	0.0	0.8567856230703977	-0.40477751213891544	0.0	0.7012021950388275	-0.4049341808175238	0.0	0.6656830004370583	-0.4727722058093404	0.0	0.6589944438548198	-0.45940276423747367	0.0	0.6804622321251128	-0.3927748113740482	0.0	0.8928926861706888	-0.24909712036853468	0.0	0.8558109963639023	-0.40123909198335805	0.0	0.7066666694528974	-0.4072253216587276	0.0	0.671573128322853	-0.46513175371956755	0.0	0.6705531876073684	-0.4665711877205305	0.0	0.6814460372185617	-0.3959772285977198	0.0	1.0694369322284387	-0.34021986223242834	0.0	1.1243588354366745	-0.40713236807017955	0.0	1.0776502714933949	-0.39154560772444924	0.0	1.0799599350268738	-0.31296159200746576	0.0	0.9956601142671001	-0.31726944900940435	0.0	0.9219440821041618	-0.3923892538925421	0.0	1.0515245767156856	-0.3339801252603565	0.0	0.9633493145505146	-0.3296078812694835	0.0	0.9015301169404372	-0.3999127784819252	0.0
